<svg width="1200" height="720" viewBox="0 0 1200 720" fill="none" xmlns="http://www.w3.org/2000/svg">
  <defs>
    <linearGradient id="g2" x1="0" y1="0" x2="1" y2="1">
      <stop offset="0%" stop-color="#111827"/>
      <stop offset="100%" stop-color="#312E81"/>
    </linearGradient>
    <filter id="s2" x="-20%" y="-20%" width="140%" height="140%">
      <feDropShadow dx="0" dy="22" stdDeviation="34" flood-opacity="0.28"/>
    </filter>
  </defs>
  <rect width="1200" height="720" rx="24" fill="url(#g2)"/>
  <rect x="60" y="60" width="1080" height="600" rx="16" fill="white" filter="url(#s2)"/>

  <!-- sidebar -->
  <rect x="60" y="60" width="220" height="600" rx="16" fill="#0F172A"/>
  <rect x="84" y="98" width="160" height="14" rx="7" fill="#334155"/>
  <rect x="84" y="128" width="120" height="12" rx="6" fill="#475569"/>
  <rect x="84" y="172" width="150" height="16" rx="8" fill="#1E293B"/>
  <rect x="84" y="206" width="130" height="16" rx="8" fill="#1E293B"/>
  <rect x="84" y="240" width="110" height="16" rx="8" fill="#1E293B"/>
  <rect x="84" y="274" width="150" height="16" rx="8" fill="#1E293B"/>

  <!-- topbar -->
  <rect x="300" y="60" width="840" height="56" rx="16" fill="#F4F5F7"/>
  <circle cx="324" cy="88" r="8" fill="#D1D5DB"/>
  <circle cx="348" cy="88" r="8" fill="#D1D5DB"/>
  <circle cx="372" cy="88" r="8" fill="#D1D5DB"/>
  <rect x="420" y="78" width="220" height="20" rx="10" fill="#E5E7EB"/>
  <rect x="1040" y="76" width="72" height="24" rx="12" fill="#E5E7EB"/>

  <!-- content header -->
  <rect x="324" y="148" width="220" height="28" rx="6" fill="#E5E7EB"/>
  <rect x="324" y="188" width="160" height="14" rx="7" fill="#F1F5F9"/>

  <!-- stat cards -->
  <g transform="translate(324,228)">
    <rect x="0" y="0" width="240" height="110" rx="12" fill="#FAFAFA" stroke="#EEF0F4"/>
    <rect x="16" y="18" width="120" height="14" rx="7" fill="#E5E7EB"/>
    <rect x="16" y="42" width="80" height="32" rx="8" fill="#EDE9FE"/>
  </g>
  <g transform="translate(584,228)">
    <rect x="0" y="0" width="240" height="110" rx="12" fill="#FAFAFA" stroke="#EEF0F4"/>
    <rect x="16" y="18" width="100" height="14" rx="7" fill="#E5E7EB"/>
    <rect x="16" y="42" width="80" height="32" rx="8" fill="#EDE9FE"/>
  </g>
  <g transform="translate(844,228)">
    <rect x="0" y="0" width="240" height="110" rx="12" fill="#FAFAFA" stroke="#EEF0F4"/>
    <rect x="16" y="18" width="140" height="14" rx="7" fill="#E5E7EB"/>
    <rect x="16" y="42" width="80" height="32" rx="8" fill="#EDE9FE"/>
  </g>

  <!-- table -->
  <rect x="324" y="364" width="760" height="272" rx="14" fill="#FFFFFF" stroke="#EEF0F4"/>
  <rect x="324" y="364" width="760" height="44" rx="14" fill="#F8FAFC"/>
  <rect x="344" y="378" width="120" height="12" rx="6" fill="#E5E7EB"/>
  <rect x="504" y="378" width="120" height="12" rx="6" fill="#E5E7EB"/>
  <rect x="664" y="378" width="120" height="12" rx="6" fill="#E5E7EB"/>
  <rect x="824" y="378" width="120" height="12" rx="6" fill="#E5E7EB"/>
  <!-- rows -->
  <g fill="#F8FAFC">
    <rect x="324" y="412" width="760" height="48" />
    <rect x="324" y="508" width="760" height="48" />
  </g>
  <g fill="#E5E7EB">
    <rect x="344" y="428" width="160" height="12" rx="6"/>
    <rect x="504" y="428" width="120" height="12" rx="6"/>
    <rect x="664" y="428" width="100" height="12" rx="6"/>
    <rect x="824" y="428" width="80" height="12" rx="6"/>

    <rect x="344" y="460" width="120" height="12" rx="6"/>
    <rect x="504" y="460" width="120" height="12" rx="6"/>
    <rect x="664" y="460" width="80" height="12" rx="6"/>
    <rect x="824" y="460" width="100" height="12" rx="6"/>

    <rect x="344" y="524" width="140" height="12" rx="6"/>
    <rect x="504" y="524" width="100" height="12" rx="6"/>
    <rect x="664" y="524" width="120" height="12" rx="6"/>
    <rect x="824" y="524" width="80" height="12" rx="6"/>
  </g>

  <text x="600" y="690" text-anchor="middle" font-family="Inter, system-ui, -apple-system, Segoe UI, Roboto" font-size="14" fill="#ffffff" opacity="0.9">
    Admin UI Screenshot Placeholder — replace with your real screenshot
  </text>
</svg>


