<?xml version="1.0" encoding="utf-8"?>
<svg id="master-artboard" viewBox="0 0 1400 980" version="1.1" xmlns="http://www.w3.org/2000/svg" x="0px" y="0px" style="enable-background:new 0 0 336 235.2;" width="1400px" height="980px"><rect id="ee-background" x="0" y="0" width="1400" height="980" style="fill: white; fill-opacity: 0; pointer-events: none;"/><defs><pattern id="grid" x="0" y="0" width="20" height="20" patternUnits="userSpaceOnUse">
      <path d="M 2 1 A 1 1 0 0 1 1 2 A 1 1 0 0 1 0 1 A 1 1 0 0 1 1 0 A 1 1 0 0 1 2 1 Z" fill="#E5E7EB"/>
    </pattern><linearGradient id="primary" x1="0" y1="0" x2="1" y2="1">
      <stop offset="0%" stop-color="#6366F1"/>
      <stop offset="100%" stop-color="#06B6D4"/>
    </linearGradient><filter id="shadow" x="-20%" y="-20%" width="140%" height="140%">
      <feDropShadow dx="0" dy="10" stdDeviation="16" flood-color="#0F172A" flood-opacity="0.14"/>
    </filter><marker id="arrow" markerWidth="12" markerHeight="8" refX="11" refY="4" orient="auto">
      <path d="M 0 0 L 12 4 L 0 8 Z" fill="#D1D5DB"/>
    </marker><marker id="marker-1" markerWidth="12" markerHeight="8" refX="11" refY="4" orient="auto">
      <path d="M 0 0 L 12 4 L 0 8 Z" fill="#D1D5DB"/>
    </marker></defs>





















































































































































<g transform="matrix(1.09375, 0, 0, 1.09375, 0.000009406102435605135, 74.37500000000001)"><g filter="url(#shadow)">
    <path d="M 92 110 H 248 A 12 12 0 0 1 260 122 V 144 A 12 12 0 0 1 248 156 H 92 A 12 12 0 0 1 80 144 V 122 A 12 12 0 0 1 92 110 Z" fill="#FFFFFF" stroke="#E5E7EB"/>
    <path d="M 1032 110 H 1188 A 12 12 0 0 1 1200 122 V 144 A 12 12 0 0 1 1188 156 H 1032 A 12 12 0 0 1 1020 144 V 122 A 12 12 0 0 1 1032 110 Z" fill="#FFFFFF" stroke="#E5E7EB"/>
  </g><text x="118" y="139" class="t" style="white-space: pre;  font: 700 18px Inter, system-ui, -apple-system, 'Segoe UI', Roboto, Helvetica, Arial;  fill: rgb(11, 18, 32); ">Storefront</text><text x="1070" y="139" class="t" style="white-space: pre;  font: 700 18px Inter, system-ui, -apple-system, 'Segoe UI', Roboto, Helvetica, Arial;  fill: rgb(11, 18, 32); ">Admin</text><g filter="url(#shadow)">
    <path d="M 96 170 H 1184 A 16 16 0 0 1 1200 186 V 674 A 16 16 0 0 1 1184 690 H 96 A 16 16 0 0 1 80 674 V 186 A 16 16 0 0 1 96 170 Z" fill="#FFFFFF" stroke="#E5E7EB"/>
  </g><text x="100" y="200" class="t" style="white-space: pre;  font: 700 18px Inter, system-ui, -apple-system, 'Segoe UI', Roboto, Helvetica, Arial;  fill: rgb(11, 18, 32); ">Server</text><g filter="url(#shadow)">
    <path d="M 134 225 H 1146 A 14 14 0 0 1 1160 239 V 321 A 14 14 0 0 1 1146 335 H 134 A 14 14 0 0 1 120 321 V 239 A 14 14 0 0 1 134 225 Z" fill="#F8FAFC" stroke="#E5E7EB"/>
  </g><text x="150" y="255" class="t" style="white-space: pre;  font: 700 18px Inter, system-ui, -apple-system, 'Segoe UI', Roboto, Helvetica, Arial;  fill: rgb(11, 18, 32); ">Routes</text><text x="150" y="281" class="s" style="white-space: pre;  font: 600 13px Inter, system-ui, -apple-system, 'Segoe UI', Roboto, Helvetica, Arial;  fill: rgb(17, 24, 39); ">/v1/stores · /v1/admin · /v1/users</text><text x="150" y="306" class="m" style="white-space: pre;  font: 500 12px Inter, system-ui, -apple-system, 'Segoe UI', Roboto, Helvetica, Arial;  fill: rgb(107, 114, 128); ">middlewares: auth · requestValidator (Joi) · getStore</text><g filter="url(#shadow)" transform="matrix(1.0323078010925988, 0, 0, 1, -3.87693434113853, 0)">
    <path d="M 134 370 H 1146 A 14 14 0 0 1 1160 384 V 496 A 14 14 0 0 1 1146 510 H 134 A 14 14 0 0 1 120 496 V 384 A 14 14 0 0 1 134 370 Z" fill="#EEF2FF" stroke="#E5E7EB" transform="matrix(0.5714285790938973, 0, 0, 1, 51.42857050873232, 0)"/>
  <path d="M 203.77297973632812 425.4637756347656" style="fill: rgb(238, 242, 255); fill-opacity: 1; stroke: rgb(229, 231, 235); stroke-opacity: 1; stroke-width: 1; paint-order: stroke;" transform="matrix(0.5714285790938973, 0, 0, 1, 51.42857050873232, 0)"/></g><text x="150" y="400" class="t" style="white-space: pre;  font: 700 18px Inter, system-ui, -apple-system, 'Segoe UI', Roboto, Helvetica, Arial;  fill: rgb(11, 18, 32); ">Modules (Services)</text><text x="150" y="426" class="s" style="white-space: pre;  font: 600 13px Inter, system-ui, -apple-system, 'Segoe UI', Roboto, Helvetica, Arial;  fill: rgb(17, 24, 39); ">stores · products · variations · orders · users · reviews · newsletter · integrations</text><g filter="url(#shadow)">
    <path d="M 134 540 H 1146 A 14 14 0 0 1 1160 554 V 646 A 14 14 0 0 1 1146 660 H 134 A 14 14 0 0 1 120 646 V 554 A 14 14 0 0 1 134 540 Z" fill="#0B1220"/>
  </g><text x="150" y="600" class="t-lg-white" style="white-space: pre;  font: 700 20px Inter, system-ui, -apple-system, 'Segoe UI', Roboto, Helvetica, Arial;  fill: rgb(255, 255, 255); ">Database Models</text><path d="M 170 156 L 170 225" class="pipe" style="stroke: rgb(209, 213, 219); stroke-width: 1.4; stroke-linecap: round; stroke-linejoin: round; marker-end: url('#arrow');"/><path d="M 1110 156 L 1110 225" class="pipe" style="stroke: rgb(209, 213, 219); stroke-width: 1.4; stroke-linecap: round; stroke-linejoin: round; marker-end: url('#arrow');"/><path d="M 640 335 L 640 370" class="pipe" style="stroke: rgb(209, 213, 219); stroke-width: 1.4; stroke-linecap: round; stroke-linejoin: round; marker-end: url('#arrow');"/><path d="M 640 510 L 640 540" class="pipe" style="stroke: rgb(209, 213, 219); stroke-width: 1.4; stroke-linecap: round; stroke-linejoin: round; marker-end: url('#arrow');"/></g><path d="M 134 370 H 1146 A 14 14 0 0 1 1160 384 V 496 A 14 14 0 0 1 1146 510 H 134 A 14 14 0 0 1 120 496 V 384 A 14 14 0 0 1 134 370 Z" fill="#EEF2FF" stroke="#E5E7EB" transform="matrix(0.36538457870483404, 0, 0, 1.09375, 839.0990468435202, 72.03762951069912)" style="fill: rgb(245, 255, 255);"/><path d="M 1009.9291381835938 538 L 1009.9291381835938 524.4400024414062 L 1012.7991333007812 524.4400024414062 L 1012.7991333007812 538 L 1009.9291381835938 538 ZM 1025.55908203125 538 L 1022.7290649414062 538 L 1022.7290649414062 531.9400024414062 C 1022.7290649414062 531.193359375 1022.5957641601562 530.6333618164062 1022.3291015625 530.260009765625 C 1022.0624389648438 529.8866577148438 1021.6390991210938 529.7000122070312 1021.05908203125 529.7000122070312 C 1020.2657470703125 529.7000122070312 1019.6924438476562 529.9633178710938 1019.339111328125 530.489990234375 C 1018.9857788085938 531.0166625976562 1018.80908203125 531.893310546875 1018.80908203125 533.1199951171875 L 1018.80908203125 538 L 1015.9790649414062 538 L 1015.9790649414062 527.6300048828125 L 1018.1491088867188 527.6300048828125 L 1018.5291137695312 528.9500122070312 L 1018.6790771484375 528.9500122070312 C 1018.9990844726562 528.4500122070312 1019.4357299804688 528.0733642578125 1019.9890747070312 527.8200073242188 C 1020.5424194335938 527.5599975585938 1021.1724243164062 527.4299926757812 1021.8790893554688 527.4299926757812 C 1023.0791015625 527.4299926757812 1023.992431640625 527.7566528320312 1024.619140625 528.4099731445312 C 1025.2457275390625 529.0633544921875 1025.55908203125 530.0066528320312 1025.55908203125 531.239990234375 L 1025.55908203125 538 ZM 1032.841552734375 535.9299926757812 C 1033.341552734375 535.9299926757812 1033.938232421875 535.8233032226562 1034.631591796875 535.6099853515625 L 1034.631591796875 537.7100219726562 C 1033.9249267578125 538.030029296875 1033.0582275390625 538.1900024414062 1032.0316162109375 538.1900024414062 C 1030.898193359375 538.1900024414062 1030.074951171875 537.9033203125 1029.5615234375 537.3300170898438 C 1029.0416259765625 536.7566528320312 1028.7816162109375 535.8966674804688 1028.7816162109375 534.75 L 1028.7816162109375 529.75 L 1027.4315185546875 529.75 L 1027.4315185546875 528.5599975585938 L 1028.9815673828125 527.6099853515625 L 1029.8016357421875 525.4199829101562 L 1031.611572265625 525.4199829101562 L 1031.611572265625 527.6300048828125 L 1034.5115966796875 527.6300048828125 L 1034.5115966796875 529.75 L 1031.611572265625 529.75 L 1031.611572265625 534.75 C 1031.611572265625 535.1566772460938 1031.724853515625 535.4533081054688 1031.9515380859375 535.6400146484375 C 1032.17822265625 535.8333129882812 1032.474853515625 535.9299926757812 1032.841552734375 535.9299926757812 ZM 1041.0164794921875 529.4500122070312 C 1040.41650390625 529.4500122070312 1039.9464111328125 529.6400146484375 1039.6064453125 530.02001953125 C 1039.2664794921875 530.4000244140625 1039.0731201171875 530.9400024414062 1039.0264892578125 531.6400146484375 L 1042.9964599609375 531.6400146484375 C 1042.983154296875 530.9400024414062 1042.7998046875 530.4000244140625 1042.4464111328125 530.02001953125 C 1042.0931396484375 529.6400146484375 1041.616455078125 529.4500122070312 1041.0164794921875 529.4500122070312 M 1041.41650390625 538.1900024414062 C 1039.7431640625 538.1900024414062 1038.4364013671875 537.7266845703125 1037.4964599609375 536.7999877929688 C 1036.556396484375 535.8800048828125 1036.08642578125 534.57666015625 1036.08642578125 532.8900146484375 C 1036.08642578125 531.1500244140625 1036.5230712890625 529.806640625 1037.396484375 528.8599853515625 C 1038.2630615234375 527.9066772460938 1039.463134765625 527.4299926757812 1040.9964599609375 527.4299926757812 C 1042.463134765625 527.4299926757812 1043.6031494140625 527.8499755859375 1044.41650390625 528.6900024414062 C 1045.2364501953125 529.5233154296875 1045.646484375 530.6766967773438 1045.646484375 532.1500244140625 L 1045.646484375 533.52001953125 L 1038.9564208984375 533.52001953125 C 1038.98974609375 534.32666015625 1039.2264404296875 534.9533081054688 1039.66650390625 535.4000244140625 C 1040.1131591796875 535.8533325195312 1040.73974609375 536.0800170898438 1041.5465087890625 536.0800170898438 C 1042.173095703125 536.0800170898438 1042.7630615234375 536.0133056640625 1043.31640625 535.8800048828125 C 1043.87646484375 535.7533569335938 1044.4564208984375 535.5466918945312 1045.056396484375 535.260009765625 L 1045.056396484375 537.4500122070312 C 1044.5631103515625 537.6966552734375 1044.0364990234375 537.8800048828125 1043.4764404296875 538 C 1042.9097900390625 538.1266479492188 1042.22314453125 538.1900024414062 1041.41650390625 538.1900024414062 ZM 1056.967529296875 527.6300048828125 L 1056.967529296875 529.0700073242188 L 1055.3475341796875 529.47998046875 C 1055.640869140625 529.9466552734375 1055.7874755859375 530.4666748046875 1055.7874755859375 531.0399780273438 C 1055.7874755859375 532.1533203125 1055.40087890625 533.02001953125 1054.6275634765625 533.6400146484375 C 1053.8475341796875 534.2666625976562 1052.7708740234375 534.5800170898438 1051.3974609375 534.5800170898438 L 1050.8875732421875 534.5499877929688 L 1050.467529296875 534.5 C 1050.1741943359375 534.7266845703125 1050.0274658203125 534.9733276367188 1050.0274658203125 535.239990234375 C 1050.0274658203125 535.6533203125 1050.5474853515625 535.8599853515625 1051.5875244140625 535.8599853515625 L 1053.3475341796875 535.8599853515625 C 1054.487548828125 535.8599853515625 1055.3575439453125 536.1033325195312 1055.95751953125 536.5900268554688 C 1056.5509033203125 537.07666015625 1056.8475341796875 537.7933349609375 1056.8475341796875 538.739990234375 C 1056.8475341796875 539.9533081054688 1056.3408203125 540.893310546875 1055.3275146484375 541.5599975585938 C 1054.32080078125 542.2266845703125 1052.870849609375 542.5599975585938 1050.9775390625 542.5599975585938 C 1049.5308837890625 542.5599975585938 1048.4241943359375 542.3099975585938 1047.657470703125 541.8099975585938 C 1046.8974609375 541.3033447265625 1046.517578125 540.5966796875 1046.517578125 539.6900024414062 C 1046.517578125 539.0633544921875 1046.7108154296875 538.5399780273438 1047.0975341796875 538.1199951171875 C 1047.484130859375 537.7000122070312 1048.0574951171875 537.4000244140625 1048.8175048828125 537.219970703125 C 1048.524169921875 537.0999755859375 1048.2708740234375 536.8966674804688 1048.0574951171875 536.6099853515625 C 1047.8375244140625 536.3300170898438 1047.7275390625 536.0333251953125 1047.7275390625 535.719970703125 C 1047.7275390625 535.3200073242188 1047.8408203125 534.989990234375 1048.0675048828125 534.72998046875 C 1048.3009033203125 534.469970703125 1048.6341552734375 534.2133178710938 1049.0675048828125 533.9600219726562 C 1048.5208740234375 533.719970703125 1048.0875244140625 533.3400268554688 1047.767578125 532.8200073242188 C 1047.447509765625 532.2999877929688 1047.2874755859375 531.6900024414062 1047.2874755859375 530.989990234375 C 1047.2874755859375 529.856689453125 1047.657470703125 528.97998046875 1048.3974609375 528.3599853515625 C 1049.130859375 527.739990234375 1050.180908203125 527.4299926757812 1051.5474853515625 527.4299926757812 C 1051.8408203125 527.4299926757812 1052.1875 527.4566650390625 1052.5875244140625 527.510009765625 C 1052.987548828125 527.5633544921875 1053.2408447265625 527.6033325195312 1053.3475341796875 527.6300048828125 L 1056.967529296875 527.6300048828125 M 1048.95751953125 539.469970703125 C 1048.95751953125 539.856689453125 1049.1474609375 540.1599731445312 1049.5274658203125 540.3800048828125 C 1049.90087890625 540.606689453125 1050.4241943359375 540.719970703125 1051.0975341796875 540.719970703125 C 1052.11083984375 540.719970703125 1052.9041748046875 540.5800170898438 1053.4775390625 540.2999877929688 C 1054.0574951171875 540.02001953125 1054.3475341796875 539.6400146484375 1054.3475341796875 539.1599731445312 C 1054.3475341796875 538.7733154296875 1054.177490234375 538.5033569335938 1053.8375244140625 538.3499755859375 C 1053.49755859375 538.2033081054688 1052.9708251953125 538.1300048828125 1052.257568359375 538.1300048828125 L 1050.7874755859375 538.1300048828125 C 1050.267578125 538.1300048828125 1049.834228515625 538.2533569335938 1049.487548828125 538.5 C 1049.1341552734375 538.739990234375 1048.95751953125 539.0633544921875 1048.95751953125 539.469970703125 M 1049.987548828125 531.02001953125 C 1049.987548828125 531.586669921875 1050.1175537109375 532.0333251953125 1050.3775634765625 532.3599853515625 C 1050.630859375 532.6866455078125 1051.0208740234375 532.8499755859375 1051.5474853515625 532.8499755859375 C 1052.080810546875 532.8499755859375 1052.4708251953125 532.6866455078125 1052.717529296875 532.3599853515625 C 1052.9642333984375 532.0333251953125 1053.0875244140625 531.586669921875 1053.0875244140625 531.02001953125 C 1053.0875244140625 529.7733154296875 1052.57421875 529.1500244140625 1051.5474853515625 529.1500244140625 C 1050.507568359375 529.1500244140625 1049.987548828125 529.7733154296875 1049.987548828125 531.02001953125 ZM 1064.467041015625 527.4299926757812 C 1064.8536376953125 527.4299926757812 1065.1737060546875 527.4600219726562 1065.427001953125 527.52001953125 L 1065.217041015625 530.1699829101562 C 1064.983642578125 530.1099853515625 1064.7037353515625 530.0800170898438 1064.3770751953125 530.0800170898438 C 1063.47705078125 530.0800170898438 1062.773681640625 530.3099975585938 1062.2669677734375 530.77001953125 C 1061.7603759765625 531.2366943359375 1061.507080078125 531.8866577148438 1061.507080078125 532.719970703125 L 1061.507080078125 538 L 1058.677001953125 538 L 1058.677001953125 527.6300048828125 L 1060.8270263671875 527.6300048828125 L 1061.237060546875 529.3699951171875 L 1061.3770751953125 529.3699951171875 C 1061.7037353515625 528.7899780273438 1062.140380859375 528.3233642578125 1062.68701171875 527.969970703125 C 1063.233642578125 527.6099853515625 1063.8270263671875 527.4299926757812 1064.467041015625 527.4299926757812 ZM 1073.897216796875 538 L 1073.3472900390625 536.5900268554688 L 1073.2772216796875 536.5900268554688 C 1072.803955078125 537.1900024414062 1072.31396484375 537.606689453125 1071.8072509765625 537.8400268554688 C 1071.3006591796875 538.0733032226562 1070.6439208984375 538.1900024414062 1069.8372802734375 538.1900024414062 C 1068.8372802734375 538.1900024414062 1068.053955078125 537.9033203125 1067.4873046875 537.3300170898438 C 1066.9139404296875 536.7633056640625 1066.6273193359375 535.9533081054688 1066.6273193359375 534.9000244140625 C 1066.6273193359375 533.7999877929688 1067.0106201171875 532.989990234375 1067.7772216796875 532.469970703125 C 1068.5506591796875 531.943359375 1069.7139892578125 531.6533203125 1071.2672119140625 531.5999755859375 L 1073.0672607421875 531.5399780273438 L 1073.0672607421875 531.0900268554688 C 1073.0672607421875 530.0366821289062 1072.5272216796875 529.510009765625 1071.447265625 529.510009765625 C 1070.62060546875 529.510009765625 1069.647216796875 529.760009765625 1068.5272216796875 530.260009765625 L 1067.5872802734375 528.3499755859375 C 1068.7806396484375 527.7233276367188 1070.1038818359375 527.4099731445312 1071.5572509765625 527.4099731445312 C 1072.9505615234375 527.4099731445312 1074.0172119140625 527.7133178710938 1074.75732421875 528.3200073242188 C 1075.50390625 528.9266357421875 1075.8773193359375 529.8499755859375 1075.8773193359375 531.0900268554688 L 1075.8773193359375 538 L 1073.897216796875 538 M 1073.0672607421875 533.1900024414062 L 1071.96728515625 533.22998046875 C 1071.147216796875 533.2566528320312 1070.533935546875 533.4066772460938 1070.1273193359375 533.6799926757812 C 1069.727294921875 533.9466552734375 1069.5272216796875 534.3599853515625 1069.5272216796875 534.9199829101562 C 1069.5272216796875 535.719970703125 1069.98388671875 536.1199951171875 1070.897216796875 536.1199951171875 C 1071.5572509765625 536.1199951171875 1072.083984375 535.9299926757812 1072.477294921875 535.5499877929688 C 1072.87060546875 535.1699829101562 1073.0672607421875 534.6699829101562 1073.0672607421875 534.0499877929688 L 1073.0672607421875 533.1900024414062 ZM 1083.148681640625 535.9299926757812 C 1083.648681640625 535.9299926757812 1084.245361328125 535.8233032226562 1084.938720703125 535.6099853515625 L 1084.938720703125 537.7100219726562 C 1084.2320556640625 538.030029296875 1083.3653564453125 538.1900024414062 1082.3387451171875 538.1900024414062 C 1081.205322265625 538.1900024414062 1080.382080078125 537.9033203125 1079.86865234375 537.3300170898438 C 1079.3487548828125 536.7566528320312 1079.0887451171875 535.8966674804688 1079.0887451171875 534.75 L 1079.0887451171875 529.75 L 1077.7386474609375 529.75 L 1077.7386474609375 528.5599975585938 L 1079.2886962890625 527.6099853515625 L 1080.1087646484375 525.4199829101562 L 1081.918701171875 525.4199829101562 L 1081.918701171875 527.6300048828125 L 1084.8187255859375 527.6300048828125 L 1084.8187255859375 529.75 L 1081.918701171875 529.75 L 1081.918701171875 534.75 C 1081.918701171875 535.1566772460938 1082.031982421875 535.4533081054688 1082.2586669921875 535.6400146484375 C 1082.4853515625 535.8333129882812 1082.781982421875 535.9299926757812 1083.148681640625 535.9299926757812 ZM 1086.903564453125 524.9500122070312 C 1086.903564453125 524.0233154296875 1087.4168701171875 523.5599975585938 1088.443603515625 523.5599975585938 C 1089.47021484375 523.5599975585938 1089.9835205078125 524.0233154296875 1089.9835205078125 524.9500122070312 C 1089.9835205078125 525.3900146484375 1089.85693359375 525.72998046875 1089.6036376953125 525.969970703125 C 1089.3436279296875 526.2166748046875 1088.9569091796875 526.3400268554688 1088.443603515625 526.3400268554688 C 1087.4168701171875 526.3400268554688 1086.903564453125 525.8766479492188 1086.903564453125 524.9500122070312 M 1089.8536376953125 538 L 1087.0235595703125 538 L 1087.0235595703125 527.6300048828125 L 1089.8536376953125 527.6300048828125 L 1089.8536376953125 538 ZM 1095.08203125 532.7999877929688 C 1095.08203125 533.82666015625 1095.2486572265625 534.5999755859375 1095.58203125 535.1199951171875 C 1095.9219970703125 535.6466674804688 1096.4720458984375 535.9099731445312 1097.2320556640625 535.9099731445312 C 1097.9853515625 535.9099731445312 1098.5286865234375 535.6500244140625 1098.862060546875 535.1300048828125 C 1099.1954345703125 534.6033325195312 1099.362060546875 533.82666015625 1099.362060546875 532.7999877929688 C 1099.362060546875 531.7733154296875 1099.1920166015625 531.0033569335938 1098.85205078125 530.489990234375 C 1098.5186767578125 529.9766845703125 1097.9720458984375 529.719970703125 1097.2120361328125 529.719970703125 C 1096.458740234375 529.719970703125 1095.9154052734375 529.9733276367188 1095.58203125 530.47998046875 C 1095.2486572265625 530.9933471679688 1095.08203125 531.7666625976562 1095.08203125 532.7999877929688 M 1102.2520751953125 532.7999877929688 C 1102.2520751953125 534.4866943359375 1101.805419921875 535.806640625 1100.9119873046875 536.760009765625 C 1100.025390625 537.7133178710938 1098.785400390625 538.1900024414062 1097.1920166015625 538.1900024414062 C 1096.19873046875 538.1900024414062 1095.322021484375 537.969970703125 1094.56201171875 537.530029296875 C 1093.802001953125 537.0966796875 1093.21875 536.469970703125 1092.81201171875 535.6500244140625 C 1092.398681640625 534.836669921875 1092.1920166015625 533.8866577148438 1092.1920166015625 532.7999877929688 C 1092.1920166015625 531.0999755859375 1092.6353759765625 529.780029296875 1093.5220947265625 528.8400268554688 C 1094.40869140625 527.9000244140625 1095.652099609375 527.4299926757812 1097.2520751953125 527.4299926757812 C 1098.245361328125 527.4299926757812 1099.1220703125 527.6466674804688 1099.882080078125 528.0800170898438 C 1100.648681640625 528.5133056640625 1101.2353515625 529.1366577148438 1101.64208984375 529.9500122070312 C 1102.0487060546875 530.7566528320312 1102.2520751953125 531.7066650390625 1102.2520751953125 532.7999877929688 ZM 1114.1624755859375 538 L 1111.3323974609375 538 L 1111.3323974609375 531.9400024414062 C 1111.3323974609375 531.193359375 1111.1990966796875 530.6333618164062 1110.932373046875 530.260009765625 C 1110.665771484375 529.8866577148438 1110.242431640625 529.7000122070312 1109.6624755859375 529.7000122070312 C 1108.869140625 529.7000122070312 1108.2957763671875 529.9633178710938 1107.9423828125 530.489990234375 C 1107.589111328125 531.0166625976562 1107.4124755859375 531.893310546875 1107.4124755859375 533.1199951171875 L 1107.4124755859375 538 L 1104.5823974609375 538 L 1104.5823974609375 527.6300048828125 L 1106.75244140625 527.6300048828125 L 1107.1324462890625 528.9500122070312 L 1107.282470703125 528.9500122070312 C 1107.6024169921875 528.4500122070312 1108.0390625 528.0733642578125 1108.5924072265625 527.8200073242188 C 1109.145751953125 527.5599975585938 1109.7757568359375 527.4299926757812 1110.482421875 527.4299926757812 C 1111.682373046875 527.4299926757812 1112.595703125 527.7566528320312 1113.222412109375 528.4099731445312 C 1113.84912109375 529.0633544921875 1114.1624755859375 530.0066528320312 1114.1624755859375 531.239990234375 L 1114.1624755859375 538 ZM 1124.31494140625 534.9199829101562 C 1124.31494140625 535.9866943359375 1123.9449462890625 536.7966918945312 1123.2049560546875 537.3499755859375 C 1122.4649658203125 537.9099731445312 1121.3616943359375 538.1900024414062 1119.89501953125 538.1900024414062 C 1119.135009765625 538.1900024414062 1118.4915771484375 538.1366577148438 1117.9649658203125 538.030029296875 C 1117.431640625 537.9299926757812 1116.931640625 537.780029296875 1116.4649658203125 537.5800170898438 L 1116.4649658203125 535.239990234375 C 1116.9915771484375 535.4933471679688 1117.5849609375 535.7033081054688 1118.2449951171875 535.8699951171875 C 1118.905029296875 536.0366821289062 1119.4849853515625 536.1199951171875 1119.9849853515625 536.1199951171875 C 1121.0115966796875 536.1199951171875 1121.5250244140625 535.8233032226562 1121.5250244140625 535.22998046875 C 1121.5250244140625 535.0033569335938 1121.4549560546875 534.8200073242188 1121.31494140625 534.6799926757812 C 1121.181640625 534.5399780273438 1120.9483642578125 534.3833618164062 1120.614990234375 534.2100219726562 C 1120.2816162109375 534.0366821289062 1119.8349609375 533.8300170898438 1119.2750244140625 533.5900268554688 C 1118.481689453125 533.2566528320312 1117.8983154296875 532.9500122070312 1117.5250244140625 532.6699829101562 C 1117.14501953125 532.3833618164062 1116.87158203125 532.056640625 1116.7049560546875 531.6900024414062 C 1116.5316162109375 531.316650390625 1116.4449462890625 530.8633422851562 1116.4449462890625 530.3300170898438 C 1116.4449462890625 529.4099731445312 1116.804931640625 528.6966552734375 1117.5250244140625 528.1900024414062 C 1118.23828125 527.683349609375 1119.248291015625 527.4299926757812 1120.554931640625 527.4299926757812 C 1121.808349609375 527.4299926757812 1123.0250244140625 527.7033081054688 1124.2049560546875 528.25 L 1123.35498046875 530.2899780273438 C 1122.8349609375 530.0700073242188 1122.3482666015625 529.8866577148438 1121.89501953125 529.739990234375 C 1121.441650390625 529.5999755859375 1120.981689453125 529.530029296875 1120.5150146484375 529.530029296875 C 1119.6749267578125 529.530029296875 1119.2550048828125 529.7566528320312 1119.2550048828125 530.2100219726562 C 1119.2550048828125 530.4633178710938 1119.3916015625 530.683349609375 1119.6649169921875 530.8699951171875 C 1119.931640625 531.0499877929688 1120.5216064453125 531.3233032226562 1121.4349365234375 531.6900024414062 C 1122.2415771484375 532.0166625976562 1122.8349609375 532.3233032226562 1123.2149658203125 532.6099853515625 C 1123.5882568359375 532.8966674804688 1123.864990234375 533.2233276367188 1124.044921875 533.5900268554688 C 1124.2249755859375 533.9633178710938 1124.31494140625 534.4066772460938 1124.31494140625 534.9199829101562 Z" transform="matrix(1, 0, 0, 1, -101.09588623046875, -29.589038848876953)" style="fill: rgb(51, 51, 51); white-space: pre; color: rgb(51, 51, 51);"/><path d="M 959.2496948242188 598 L 953.90966796875 598 L 953.90966796875 588.719970703125 L 959.2496948242188 588.719970703125 L 959.2496948242188 590.3300170898438 L 955.8796997070312 590.3300170898438 L 955.8796997070312 592.3699951171875 L 959.0197143554688 592.3699951171875 L 959.0197143554688 593.97998046875 L 955.8796997070312 593.97998046875 L 955.8796997070312 596.3699951171875 L 959.2496948242188 596.3699951171875 L 959.2496948242188 598 ZM 967.3817138671875 598 L 965.4417114257812 598 L 965.4417114257812 593.8499755859375 C 965.4417114257812 593.3433227539062 965.3583984375 592.9600219726562 965.1917114257812 592.7000122070312 C 965.0183715820312 592.4466552734375 964.7484130859375 592.3200073242188 964.3817138671875 592.3200073242188 C 963.8817138671875 592.3200073242188 963.521728515625 592.5 963.3016967773438 592.8599853515625 C 963.0750732421875 593.2266845703125 962.9617309570312 593.82666015625 962.9617309570312 594.6599731445312 L 962.9617309570312 598 L 961.03173828125 598 L 961.03173828125 590.9000244140625 L 962.501708984375 590.9000244140625 L 962.76171875 591.8099975585938 L 962.8717041015625 591.8099975585938 C 963.0650634765625 591.4833374023438 963.3417358398438 591.22998046875 963.7017211914062 591.0499877929688 C 964.0617065429688 590.8633422851562 964.4750366210938 590.77001953125 964.9417114257812 590.77001953125 C 966.001708984375 590.77001953125 966.7183837890625 591.1166381835938 967.0917358398438 591.8099975585938 L 967.271728515625 591.8099975585938 C 967.4583740234375 591.4833374023438 967.7384033203125 591.2266845703125 968.1116943359375 591.0399780273438 C 968.4783935546875 590.8599853515625 968.8950805664062 590.77001953125 969.3616943359375 590.77001953125 C 970.1683959960938 590.77001953125 970.7783813476562 590.9766845703125 971.1917114257812 591.3900146484375 C 971.598388671875 591.8033447265625 971.8016967773438 592.4633178710938 971.8016967773438 593.3699951171875 L 971.8016967773438 598 L 969.8616943359375 598 L 969.8616943359375 593.8499755859375 C 969.8616943359375 593.3433227539062 969.7750244140625 592.9600219726562 969.6017456054688 592.7000122070312 C 969.43505859375 592.4466552734375 969.1683959960938 592.3200073242188 968.8016967773438 592.3200073242188 C 968.3217163085938 592.3200073242188 967.9650268554688 592.489990234375 967.731689453125 592.8300170898438 C 967.4984130859375 593.163330078125 967.3817138671875 593.7000122070312 967.3817138671875 594.4400024414062 L 967.3817138671875 598 ZM 978.2939453125 598 L 977.9239501953125 597.0399780273438 L 977.8739013671875 597.0399780273438 C 977.5472412109375 597.4466552734375 977.2105712890625 597.72998046875 976.8639526367188 597.8900146484375 C 976.5172729492188 598.0499877929688 976.0672607421875 598.1300048828125 975.513916015625 598.1300048828125 C 974.8339233398438 598.1300048828125 974.2972412109375 597.933349609375 973.9039306640625 597.5399780273438 C 973.5172729492188 597.1533203125 973.3239135742188 596.5999755859375 973.3239135742188 595.8800048828125 C 973.3239135742188 595.1266479492188 973.5872802734375 594.5700073242188 974.1139526367188 594.2100219726562 C 974.6405639648438 593.856689453125 975.4338989257812 593.6599731445312 976.493896484375 593.6199951171875 L 977.7239379882812 593.5800170898438 L 977.7239379882812 593.27001953125 C 977.7239379882812 592.5499877929688 977.3572387695312 592.1900024414062 976.6239013671875 592.1900024414062 C 976.0572509765625 592.1900024414062 975.3905639648438 592.3633422851562 974.6239013671875 592.7100219726562 L 973.9839477539062 591.4000244140625 C 974.7972412109375 590.9733276367188 975.7006225585938 590.760009765625 976.6939086914062 590.760009765625 C 977.6472778320312 590.760009765625 978.3772583007812 590.9666748046875 978.8839111328125 591.3800048828125 C 979.3905639648438 591.7933349609375 979.6439208984375 592.42333984375 979.6439208984375 593.27001953125 L 979.6439208984375 598 L 978.2939453125 598 M 977.7239379882812 594.7100219726562 L 976.9739379882812 594.739990234375 C 976.4139404296875 594.7533569335938 975.9972534179688 594.8533325195312 975.7239379882812 595.0399780273438 C 975.4439086914062 595.2266845703125 975.303955078125 595.510009765625 975.303955078125 595.8900146484375 C 975.303955078125 596.4366455078125 975.6172485351562 596.7100219726562 976.243896484375 596.7100219726562 C 976.697265625 596.7100219726562 977.0572509765625 596.5800170898438 977.3239135742188 596.3200073242188 C 977.590576171875 596.066650390625 977.7239379882812 595.7266845703125 977.7239379882812 595.2999877929688 L 977.7239379882812 594.7100219726562 ZM 981.5538940429688 589.0700073242188 C 981.5538940429688 588.4366455078125 981.9072265625 588.1199951171875 982.6138916015625 588.1199951171875 C 983.3139038085938 588.1199951171875 983.6638793945312 588.4366455078125 983.6638793945312 589.0700073242188 C 983.6638793945312 589.3699951171875 983.5772094726562 589.6033325195312 983.4039306640625 589.77001953125 C 983.223876953125 589.9366455078125 982.9605712890625 590.02001953125 982.6138916015625 590.02001953125 C 981.9072265625 590.02001953125 981.5538940429688 589.7033081054688 981.5538940429688 589.0700073242188 M 983.5739135742188 598 L 981.6439208984375 598 L 981.6439208984375 590.9000244140625 L 983.5739135742188 590.9000244140625 L 983.5739135742188 598 ZM 987.5325927734375 598 L 985.6026000976562 598 L 985.6026000976562 588.1199951171875 L 987.5325927734375 588.1199951171875 L 987.5325927734375 598 ZM 991.4608764648438 596.6400146484375 C 991.2409057617188 597.4933471679688 990.8709106445312 598.5066528320312 990.3508911132812 599.6799926757812 L 988.950927734375 599.6799926757812 C 989.2242431640625 598.5533447265625 989.4375610351562 597.489990234375 989.5908813476562 596.489990234375 L 991.3709106445312 596.489990234375 L 991.4608764648438 596.6400146484375 ZM 1002.3477172851562 595.4199829101562 C 1002.3477172851562 596.260009765625 1002.0443725585938 596.9199829101562 1001.4376831054688 597.4000244140625 C 1000.8377075195312 597.8866577148438 999.9976806640625 598.1300048828125 998.9176635742188 598.1300048828125 C 997.9310302734375 598.1300048828125 997.0576782226562 597.943359375 996.2976684570312 597.5700073242188 L 996.2976684570312 595.739990234375 C 996.9243774414062 596.02001953125 997.454345703125 596.2166748046875 997.8876953125 596.3300170898438 C 998.321044921875 596.443359375 998.7177124023438 596.5 999.0776977539062 596.5 C 999.5043334960938 596.5 999.8343505859375 596.4166870117188 1000.0676879882812 596.25 C 1000.301025390625 596.0900268554688 1000.4176635742188 595.8466796875 1000.4176635742188 595.52001953125 C 1000.4176635742188 595.3400268554688 1000.3643798828125 595.1766967773438 1000.2576904296875 595.030029296875 C 1000.15771484375 594.8900146484375 1000.0110473632812 594.7533569335938 999.8176879882812 594.6199951171875 C 999.61767578125 594.4933471679688 999.21435546875 594.2833251953125 998.607666015625 593.989990234375 C 998.041015625 593.7233276367188 997.61767578125 593.469970703125 997.3377075195312 593.22998046875 C 997.051025390625 592.9833374023438 996.8243408203125 592.6966552734375 996.65771484375 592.3699951171875 C 996.484375 592.0433349609375 996.397705078125 591.663330078125 996.397705078125 591.22998046875 C 996.397705078125 590.4099731445312 996.6776733398438 589.7633056640625 997.2376708984375 589.2899780273438 C 997.791015625 588.8233642578125 998.56103515625 588.5900268554688 999.5476684570312 588.5900268554688 C 1000.0277099609375 588.5900268554688 1000.4876708984375 588.6466674804688 1000.9276733398438 588.760009765625 C 1001.3610229492188 588.8733520507812 1001.8176879882812 589.0333251953125 1002.2976684570312 589.239990234375 L 1001.6676635742188 590.77001953125 C 1001.1676635742188 590.5700073242188 1000.7576904296875 590.4266967773438 1000.4376831054688 590.3400268554688 C 1000.1110229492188 590.260009765625 999.791015625 590.219970703125 999.4777221679688 590.219970703125 C 999.1043701171875 590.219970703125 998.821044921875 590.306640625 998.627685546875 590.47998046875 C 998.4276733398438 590.6533203125 998.3276977539062 590.8800048828125 998.3276977539062 591.1599731445312 C 998.3276977539062 591.3333129882812 998.36767578125 591.4866943359375 998.4476928710938 591.6199951171875 C 998.5277099609375 591.7466430664062 998.6543579101562 591.8699951171875 998.8276977539062 591.989990234375 C 999.0076904296875 592.1099853515625 999.4243774414062 592.32666015625 1000.0776977539062 592.6400146484375 C 1000.9443359375 593.0533447265625 1001.5377197265625 593.469970703125 1001.857666015625 593.8900146484375 C 1002.1843872070312 594.3099975585938 1002.3477172851562 594.8200073242188 1002.3477172851562 595.4199829101562 ZM 1007.9541625976562 598 L 1005.7141723632812 590.719970703125 L 1005.6641845703125 590.719970703125 C 1005.7442016601562 592.2000122070312 1005.7841796875 593.1866455078125 1005.7841796875 593.6799926757812 L 1005.7841796875 598 L 1004.024169921875 598 L 1004.024169921875 588.719970703125 L 1006.7041625976562 588.719970703125 L 1008.8941650390625 595.8200073242188 L 1008.9342041015625 595.8200073242188 L 1011.26416015625 588.719970703125 L 1013.9442138671875 588.719970703125 L 1013.9442138671875 598 L 1012.1041870117188 598 L 1012.1041870117188 593.6099853515625 C 1012.1041870117188 593.4033203125 1012.1075439453125 593.163330078125 1012.1141967773438 592.8900146484375 C 1012.120849609375 592.6166381835938 1012.15087890625 591.8966674804688 1012.2041625976562 590.72998046875 L 1012.1441650390625 590.72998046875 L 1009.7542114257812 598 L 1007.9541625976562 598 ZM 1021.7559204101562 595.4199829101562 C 1021.7559204101562 596.260009765625 1021.4525756835938 596.9199829101562 1020.8458862304688 597.4000244140625 C 1020.2459106445312 597.8866577148438 1019.4058837890625 598.1300048828125 1018.3258666992188 598.1300048828125 C 1017.3392333984375 598.1300048828125 1016.4658813476562 597.943359375 1015.7058715820312 597.5700073242188 L 1015.7058715820312 595.739990234375 C 1016.3325805664062 596.02001953125 1016.862548828125 596.2166748046875 1017.2958984375 596.3300170898438 C 1017.729248046875 596.443359375 1018.1259155273438 596.5 1018.4859008789062 596.5 C 1018.9125366210938 596.5 1019.2425537109375 596.4166870117188 1019.4758911132812 596.25 C 1019.709228515625 596.0900268554688 1019.8258666992188 595.8466796875 1019.8258666992188 595.52001953125 C 1019.8258666992188 595.3400268554688 1019.7725830078125 595.1766967773438 1019.6658935546875 595.030029296875 C 1019.56591796875 594.8900146484375 1019.4192504882812 594.7533569335938 1019.2258911132812 594.6199951171875 C 1019.02587890625 594.4933471679688 1018.62255859375 594.2833251953125 1018.015869140625 593.989990234375 C 1017.44921875 593.7233276367188 1017.02587890625 593.469970703125 1016.7459106445312 593.22998046875 C 1016.459228515625 592.9833374023438 1016.2325439453125 592.6966552734375 1016.06591796875 592.3699951171875 C 1015.892578125 592.0433349609375 1015.805908203125 591.663330078125 1015.805908203125 591.22998046875 C 1015.805908203125 590.4099731445312 1016.0858764648438 589.7633056640625 1016.6458740234375 589.2899780273438 C 1017.19921875 588.8233642578125 1017.96923828125 588.5900268554688 1018.9558715820312 588.5900268554688 C 1019.4359130859375 588.5900268554688 1019.8958740234375 588.6466674804688 1020.3358764648438 588.760009765625 C 1020.7692260742188 588.8733520507812 1021.2258911132812 589.0333251953125 1021.7058715820312 589.239990234375 L 1021.0758666992188 590.77001953125 C 1020.5758666992188 590.5700073242188 1020.1658935546875 590.4266967773438 1019.8458862304688 590.3400268554688 C 1019.5192260742188 590.260009765625 1019.19921875 590.219970703125 1018.8859252929688 590.219970703125 C 1018.5125732421875 590.219970703125 1018.229248046875 590.306640625 1018.035888671875 590.47998046875 C 1017.8358764648438 590.6533203125 1017.7359008789062 590.8800048828125 1017.7359008789062 591.1599731445312 C 1017.7359008789062 591.3333129882812 1017.77587890625 591.4866943359375 1017.8558959960938 591.6199951171875 C 1017.9359130859375 591.7466430664062 1018.0625610351562 591.8699951171875 1018.2359008789062 591.989990234375 C 1018.4158935546875 592.1099853515625 1018.8325805664062 592.32666015625 1019.4859008789062 592.6400146484375 C 1020.3525390625 593.0533447265625 1020.9459228515625 593.469970703125 1021.265869140625 593.8900146484375 C 1021.5925903320312 594.3099975585938 1021.7559204101562 594.8200073242188 1021.7559204101562 595.4199829101562 ZM 1025.17236328125 596.6400146484375 C 1024.952392578125 597.4933471679688 1024.5823974609375 598.5066528320312 1024.0623779296875 599.6799926757812 L 1022.6624145507812 599.6799926757812 C 1022.9357299804688 598.5533447265625 1023.1490478515625 597.489990234375 1023.3023681640625 596.489990234375 L 1025.0823974609375 596.489990234375 L 1025.17236328125 596.6400146484375 ZM 1032.5491943359375 593.0900268554688 L 1033.189208984375 593.0900268554688 C 1033.7958984375 593.0900268554688 1034.2491455078125 592.969970703125 1034.5491943359375 592.72998046875 C 1034.84912109375 592.489990234375 1034.9991455078125 592.1400146484375 1034.9991455078125 591.6799926757812 C 1034.9991455078125 591.219970703125 1034.87255859375 590.8800048828125 1034.619140625 590.6599731445312 C 1034.37255859375 590.4400024414062 1033.9791259765625 590.3300170898438 1033.439208984375 590.3300170898438 L 1032.5491943359375 590.3300170898438 L 1032.5491943359375 593.0900268554688 M 1036.9891357421875 591.6099853515625 C 1036.9891357421875 592.6099853515625 1036.6759033203125 593.3766479492188 1036.0491943359375 593.9099731445312 C 1035.42919921875 594.4366455078125 1034.54248046875 594.7000122070312 1033.38916015625 594.7000122070312 L 1032.5491943359375 594.7000122070312 L 1032.5491943359375 598 L 1030.5792236328125 598 L 1030.5792236328125 588.719970703125 L 1033.5391845703125 588.719970703125 C 1034.6658935546875 588.719970703125 1035.5224609375 588.9633178710938 1036.109130859375 589.4500122070312 C 1036.69580078125 589.9299926757812 1036.9891357421875 590.6500244140625 1036.9891357421875 591.6099853515625 ZM 1043.08740234375 598 L 1042.7174072265625 597.0399780273438 L 1042.6673583984375 597.0399780273438 C 1042.3406982421875 597.4466552734375 1042.0040283203125 597.72998046875 1041.6573486328125 597.8900146484375 C 1041.3106689453125 598.0499877929688 1040.8607177734375 598.1300048828125 1040.307373046875 598.1300048828125 C 1039.62744140625 598.1300048828125 1039.0906982421875 597.933349609375 1038.6973876953125 597.5399780273438 C 1038.3106689453125 597.1533203125 1038.117431640625 596.5999755859375 1038.117431640625 595.8800048828125 C 1038.117431640625 595.1266479492188 1038.3807373046875 594.5700073242188 1038.9073486328125 594.2100219726562 C 1039.43408203125 593.856689453125 1040.2274169921875 593.6599731445312 1041.287353515625 593.6199951171875 L 1042.517333984375 593.5800170898438 L 1042.517333984375 593.27001953125 C 1042.517333984375 592.5499877929688 1042.1507568359375 592.1900024414062 1041.4173583984375 592.1900024414062 C 1040.8507080078125 592.1900024414062 1040.18408203125 592.3633422851562 1039.4173583984375 592.7100219726562 L 1038.77734375 591.4000244140625 C 1039.5906982421875 590.9733276367188 1040.4940185546875 590.760009765625 1041.4874267578125 590.760009765625 C 1042.440673828125 590.760009765625 1043.1707763671875 590.9666748046875 1043.6773681640625 591.3800048828125 C 1044.18408203125 591.7933349609375 1044.4373779296875 592.42333984375 1044.4373779296875 593.27001953125 L 1044.4373779296875 598 L 1043.08740234375 598 M 1042.517333984375 594.7100219726562 L 1041.767333984375 594.739990234375 C 1041.2073974609375 594.7533569335938 1040.790771484375 594.8533325195312 1040.517333984375 595.0399780273438 C 1040.2374267578125 595.2266845703125 1040.097412109375 595.510009765625 1040.097412109375 595.8900146484375 C 1040.097412109375 596.4366455078125 1040.4107666015625 596.7100219726562 1041.037353515625 596.7100219726562 C 1041.49072265625 596.7100219726562 1041.8507080078125 596.5800170898438 1042.117431640625 596.3200073242188 C 1042.384033203125 596.066650390625 1042.517333984375 595.7266845703125 1042.517333984375 595.2999877929688 L 1042.517333984375 594.7100219726562 ZM 1045.4173583984375 590.9000244140625 L 1047.537353515625 590.9000244140625 L 1048.8773193359375 594.9000244140625 C 1048.99072265625 595.2466430664062 1049.0673828125 595.6566772460938 1049.1072998046875 596.1300048828125 L 1049.1473388671875 596.1300048828125 C 1049.1939697265625 595.6900024414062 1049.287353515625 595.280029296875 1049.4273681640625 594.9000244140625 L 1050.7373046875 590.9000244140625 L 1052.8173828125 590.9000244140625 L 1049.807373046875 598.9099731445312 C 1049.5340576171875 599.6500244140625 1049.14404296875 600.2033081054688 1048.6373291015625 600.5700073242188 C 1048.1240234375 600.9366455078125 1047.52734375 601.1199951171875 1046.847412109375 601.1199951171875 C 1046.5140380859375 601.1199951171875 1046.18408203125 601.086669921875 1045.8572998046875 601.02001953125 L 1045.8572998046875 599.47998046875 C 1046.0906982421875 599.5333251953125 1046.347412109375 599.5599975585938 1046.6273193359375 599.5599975585938 C 1046.9674072265625 599.5599975585938 1047.2640380859375 599.4566650390625 1047.517333984375 599.25 C 1047.77734375 599.0366821289062 1047.9774169921875 598.719970703125 1048.1173095703125 598.2999877929688 L 1048.2373046875 597.9500122070312 L 1045.4173583984375 590.9000244140625 ZM 1060.1749267578125 598 L 1058.2349853515625 598 L 1058.2349853515625 593.8499755859375 C 1058.2349853515625 593.3433227539062 1058.151611328125 592.9600219726562 1057.9849853515625 592.7000122070312 C 1057.8116455078125 592.4466552734375 1057.5416259765625 592.3200073242188 1057.1749267578125 592.3200073242188 C 1056.6749267578125 592.3200073242188 1056.31494140625 592.5 1056.094970703125 592.8599853515625 C 1055.8682861328125 593.2266845703125 1055.7548828125 593.82666015625 1055.7548828125 594.6599731445312 L 1055.7548828125 598 L 1053.824951171875 598 L 1053.824951171875 590.9000244140625 L 1055.294921875 590.9000244140625 L 1055.554931640625 591.8099975585938 L 1055.6649169921875 591.8099975585938 C 1055.8582763671875 591.4833374023438 1056.1348876953125 591.22998046875 1056.494873046875 591.0499877929688 C 1056.85498046875 590.8633422851562 1057.268310546875 590.77001953125 1057.7349853515625 590.77001953125 C 1058.794921875 590.77001953125 1059.5115966796875 591.1166381835938 1059.8848876953125 591.8099975585938 L 1060.06494140625 591.8099975585938 C 1060.2515869140625 591.4833374023438 1060.5316162109375 591.2266845703125 1060.9049072265625 591.0399780273438 C 1061.2716064453125 590.8599853515625 1061.688232421875 590.77001953125 1062.1549072265625 590.77001953125 C 1062.9615478515625 590.77001953125 1063.5716552734375 590.9766845703125 1063.9849853515625 591.3900146484375 C 1064.3916015625 591.8033447265625 1064.594970703125 592.4633178710938 1064.594970703125 593.3699951171875 L 1064.594970703125 598 L 1062.6549072265625 598 L 1062.6549072265625 593.8499755859375 C 1062.6549072265625 593.3433227539062 1062.5682373046875 592.9600219726562 1062.3948974609375 592.7000122070312 C 1062.228271484375 592.4466552734375 1061.9615478515625 592.3200073242188 1061.594970703125 592.3200073242188 C 1061.114990234375 592.3200073242188 1060.75830078125 592.489990234375 1060.52490234375 592.8300170898438 C 1060.2916259765625 593.163330078125 1060.1749267578125 593.7000122070312 1060.1749267578125 594.4400024414062 L 1060.1749267578125 598 ZM 1069.51708984375 592.1500244140625 C 1069.1104736328125 592.1500244140625 1068.79052734375 592.280029296875 1068.55712890625 592.5399780273438 C 1068.3238525390625 592.7999877929688 1068.1904296875 593.1699829101562 1068.1571044921875 593.6500244140625 L 1070.877197265625 593.6500244140625 C 1070.86376953125 593.1699829101562 1070.7371826171875 592.7999877929688 1070.4971923828125 592.5399780273438 C 1070.257080078125 592.280029296875 1069.930419921875 592.1500244140625 1069.51708984375 592.1500244140625 M 1069.797119140625 598.1300048828125 C 1068.6505126953125 598.1300048828125 1067.757080078125 597.8133544921875 1067.1171875 597.1799926757812 C 1066.470458984375 596.5533447265625 1066.1470947265625 595.6599731445312 1066.1470947265625 594.5 C 1066.1470947265625 593.3133544921875 1066.4471435546875 592.393310546875 1067.047119140625 591.739990234375 C 1067.6405029296875 591.0933227539062 1068.46044921875 590.77001953125 1069.507080078125 590.77001953125 C 1070.5137939453125 590.77001953125 1071.2938232421875 591.056640625 1071.84716796875 591.6300048828125 C 1072.4071044921875 592.1966552734375 1072.6871337890625 592.9833374023438 1072.6871337890625 593.989990234375 L 1072.6871337890625 594.9299926757812 L 1068.1171875 594.9299926757812 C 1068.1370849609375 595.4833374023438 1068.297119140625 595.913330078125 1068.59716796875 596.219970703125 C 1068.90380859375 596.5333251953125 1069.3338623046875 596.6900024414062 1069.8870849609375 596.6900024414062 C 1070.3138427734375 596.6900024414062 1070.7171630859375 596.643310546875 1071.09716796875 596.5499877929688 C 1071.4771728515625 596.4633178710938 1071.873779296875 596.3233032226562 1072.287109375 596.1300048828125 L 1072.287109375 597.6300048828125 C 1071.9471435546875 597.7966918945312 1071.587158203125 597.9199829101562 1071.2071533203125 598 C 1070.8204345703125 598.086669921875 1070.3504638671875 598.1300048828125 1069.797119140625 598.1300048828125 ZM 1080.813720703125 598 L 1078.873779296875 598 L 1078.873779296875 593.8499755859375 C 1078.873779296875 593.3433227539062 1078.7838134765625 592.9600219726562 1078.603759765625 592.7000122070312 C 1078.4171142578125 592.4466552734375 1078.1270751953125 592.3200073242188 1077.7337646484375 592.3200073242188 C 1077.1937255859375 592.3200073242188 1076.8004150390625 592.5 1076.5538330078125 592.8599853515625 C 1076.313720703125 593.219970703125 1076.1937255859375 593.8200073242188 1076.1937255859375 594.6599731445312 L 1076.1937255859375 598 L 1074.2637939453125 598 L 1074.2637939453125 590.9000244140625 L 1075.7337646484375 590.9000244140625 L 1075.9937744140625 591.8099975585938 L 1076.103759765625 591.8099975585938 C 1076.32373046875 591.469970703125 1076.6204833984375 591.2100219726562 1076.9937744140625 591.030029296875 C 1077.373779296875 590.856689453125 1077.80712890625 590.77001953125 1078.2938232421875 590.77001953125 C 1079.11376953125 590.77001953125 1079.740478515625 590.9933471679688 1080.173828125 591.4400024414062 C 1080.6004638671875 591.8866577148438 1080.813720703125 592.530029296875 1080.813720703125 593.3699951171875 L 1080.813720703125 598 ZM 1085.7972412109375 596.5800170898438 C 1086.130615234375 596.5800170898438 1086.533935546875 596.5066528320312 1087.0072021484375 596.3599853515625 L 1087.0072021484375 597.7999877929688 C 1086.5272216796875 598.02001953125 1085.937255859375 598.1300048828125 1085.2371826171875 598.1300048828125 C 1084.4638671875 598.1300048828125 1083.9005126953125 597.933349609375 1083.5472412109375 597.5399780273438 C 1083.19384765625 597.1466674804688 1083.0172119140625 596.5599975585938 1083.0172119140625 595.780029296875 L 1083.0172119140625 592.3599853515625 L 1082.0872802734375 592.3599853515625 L 1082.0872802734375 591.5399780273438 L 1083.147216796875 590.8900146484375 L 1083.707275390625 589.3900146484375 L 1084.947265625 589.3900146484375 L 1084.947265625 590.9000244140625 L 1086.937255859375 590.9000244140625 L 1086.937255859375 592.3599853515625 L 1084.947265625 592.3599853515625 L 1084.947265625 595.780029296875 C 1084.947265625 596.0533447265625 1085.02392578125 596.2566528320312 1085.17724609375 596.3900146484375 C 1085.33056640625 596.5166625976562 1085.5372314453125 596.5800170898438 1085.7972412109375 596.5800170898438 ZM 1097.9925537109375 590.9000244140625 L 1097.9925537109375 591.8900146484375 L 1096.882568359375 592.1699829101562 C 1097.0892333984375 592.489990234375 1097.192626953125 592.8466796875 1097.192626953125 593.239990234375 C 1097.192626953125 594 1096.9259033203125 594.5933227539062 1096.392578125 595.02001953125 C 1095.8592529296875 595.4466552734375 1095.12255859375 595.6599731445312 1094.1826171875 595.6599731445312 L 1093.8326416015625 595.6400146484375 L 1093.5426025390625 595.6099853515625 C 1093.3426513671875 595.7633056640625 1093.2425537109375 595.9299926757812 1093.2425537109375 596.1099853515625 C 1093.2425537109375 596.3900146484375 1093.5992431640625 596.530029296875 1094.3126220703125 596.530029296875 L 1095.5225830078125 596.530029296875 C 1096.2958984375 596.530029296875 1096.8892822265625 596.7000122070312 1097.3026123046875 597.0399780273438 C 1097.709228515625 597.3733520507812 1097.91259765625 597.8633422851562 1097.91259765625 598.510009765625 C 1097.91259765625 599.336669921875 1097.56591796875 599.97998046875 1096.87255859375 600.4400024414062 C 1096.1793212890625 600.893310546875 1095.1859130859375 601.1199951171875 1093.892578125 601.1199951171875 C 1092.906005859375 601.1199951171875 1092.1492919921875 600.9500122070312 1091.62255859375 600.6099853515625 C 1091.1026611328125 600.2633056640625 1090.8426513671875 599.780029296875 1090.8426513671875 599.1599731445312 C 1090.8426513671875 598.7266845703125 1090.9759521484375 598.3666381835938 1091.2425537109375 598.0800170898438 C 1091.50927734375 597.7933349609375 1091.8992919921875 597.5900268554688 1092.41259765625 597.469970703125 C 1092.212646484375 597.3833618164062 1092.039306640625 597.2433471679688 1091.892578125 597.0499877929688 C 1091.7459716796875 596.856689453125 1091.672607421875 596.6533203125 1091.672607421875 596.4400024414062 C 1091.672607421875 596.1666870117188 1091.749267578125 595.9400024414062 1091.902587890625 595.760009765625 C 1092.0626220703125 595.5800170898438 1092.289306640625 595.4033203125 1092.5826416015625 595.22998046875 C 1092.2159423828125 595.0700073242188 1091.922607421875 594.8133544921875 1091.70263671875 594.4600219726562 C 1091.482666015625 594.0999755859375 1091.37255859375 593.6799926757812 1091.37255859375 593.2000122070312 C 1091.37255859375 592.4266967773438 1091.6259765625 591.82666015625 1092.132568359375 591.4000244140625 C 1092.632568359375 590.97998046875 1093.3492431640625 590.77001953125 1094.2825927734375 590.77001953125 C 1094.482666015625 590.77001953125 1094.71923828125 590.7866821289062 1094.9925537109375 590.8200073242188 C 1095.2659912109375 590.8599853515625 1095.442626953125 590.8866577148438 1095.5225830078125 590.9000244140625 L 1097.9925537109375 590.9000244140625 M 1092.5125732421875 599 C 1092.5125732421875 599.2666625976562 1092.642578125 599.4766845703125 1092.902587890625 599.6300048828125 C 1093.156005859375 599.7833251953125 1093.5125732421875 599.8599853515625 1093.97265625 599.8599853515625 C 1094.6658935546875 599.8599853515625 1095.212646484375 599.7633056640625 1095.6126708984375 599.5700073242188 C 1096.0059814453125 599.3833618164062 1096.20263671875 599.1233520507812 1096.20263671875 598.7899780273438 C 1096.20263671875 598.5233154296875 1096.0859375 598.3400268554688 1095.8526611328125 598.239990234375 C 1095.6192626953125 598.1400146484375 1095.25927734375 598.0900268554688 1094.7725830078125 598.0900268554688 L 1093.7625732421875 598.0900268554688 C 1093.4093017578125 598.0900268554688 1093.1126708984375 598.17333984375 1092.87255859375 598.3400268554688 C 1092.632568359375 598.5066528320312 1092.5125732421875 598.7266845703125 1092.5125732421875 599 M 1093.22265625 593.22998046875 C 1093.22265625 593.6099853515625 1093.309326171875 593.913330078125 1093.482666015625 594.1400146484375 C 1093.66259765625 594.3666381835938 1093.9293212890625 594.47998046875 1094.2825927734375 594.47998046875 C 1094.6492919921875 594.47998046875 1094.9158935546875 594.3666381835938 1095.0826416015625 594.1400146484375 C 1095.2559814453125 593.913330078125 1095.3426513671875 593.6099853515625 1095.3426513671875 593.22998046875 C 1095.3426513671875 592.3699951171875 1094.9892578125 591.9400024414062 1094.2825927734375 591.9400024414062 C 1093.575927734375 591.9400024414062 1093.22265625 592.3699951171875 1093.22265625 593.22998046875 ZM 1103.662109375 598 L 1103.2921142578125 597.0399780273438 L 1103.2420654296875 597.0399780273438 C 1102.9154052734375 597.4466552734375 1102.5787353515625 597.72998046875 1102.2320556640625 597.8900146484375 C 1101.8853759765625 598.0499877929688 1101.4354248046875 598.1300048828125 1100.882080078125 598.1300048828125 C 1100.2021484375 598.1300048828125 1099.6654052734375 597.933349609375 1099.2720947265625 597.5399780273438 C 1098.8853759765625 597.1533203125 1098.692138671875 596.5999755859375 1098.692138671875 595.8800048828125 C 1098.692138671875 595.1266479492188 1098.9554443359375 594.5700073242188 1099.4820556640625 594.2100219726562 C 1100.0087890625 593.856689453125 1100.8021240234375 593.6599731445312 1101.862060546875 593.6199951171875 L 1103.092041015625 593.5800170898438 L 1103.092041015625 593.27001953125 C 1103.092041015625 592.5499877929688 1102.7254638671875 592.1900024414062 1101.9920654296875 592.1900024414062 C 1101.4254150390625 592.1900024414062 1100.7587890625 592.3633422851562 1099.9920654296875 592.7100219726562 L 1099.35205078125 591.4000244140625 C 1100.1654052734375 590.9733276367188 1101.0687255859375 590.760009765625 1102.0621337890625 590.760009765625 C 1103.015380859375 590.760009765625 1103.7454833984375 590.9666748046875 1104.2520751953125 591.3800048828125 C 1104.7587890625 591.7933349609375 1105.0120849609375 592.42333984375 1105.0120849609375 593.27001953125 L 1105.0120849609375 598 L 1103.662109375 598 M 1103.092041015625 594.7100219726562 L 1102.342041015625 594.739990234375 C 1101.7821044921875 594.7533569335938 1101.365478515625 594.8533325195312 1101.092041015625 595.0399780273438 C 1100.8121337890625 595.2266845703125 1100.672119140625 595.510009765625 1100.672119140625 595.8900146484375 C 1100.672119140625 596.4366455078125 1100.9854736328125 596.7100219726562 1101.612060546875 596.7100219726562 C 1102.0654296875 596.7100219726562 1102.4254150390625 596.5800170898438 1102.692138671875 596.3200073242188 C 1102.958740234375 596.066650390625 1103.092041015625 595.7266845703125 1103.092041015625 595.2999877929688 L 1103.092041015625 594.7100219726562 ZM 1110.0020751953125 596.5800170898438 C 1110.33544921875 596.5800170898438 1110.73876953125 596.5066528320312 1111.2120361328125 596.3599853515625 L 1111.2120361328125 597.7999877929688 C 1110.7320556640625 598.02001953125 1110.14208984375 598.1300048828125 1109.4420166015625 598.1300048828125 C 1108.668701171875 598.1300048828125 1108.1053466796875 597.933349609375 1107.7520751953125 597.5399780273438 C 1107.398681640625 597.1466674804688 1107.2220458984375 596.5599975585938 1107.2220458984375 595.780029296875 L 1107.2220458984375 592.3599853515625 L 1106.2921142578125 592.3599853515625 L 1106.2921142578125 591.5399780273438 L 1107.35205078125 590.8900146484375 L 1107.912109375 589.3900146484375 L 1109.152099609375 589.3900146484375 L 1109.152099609375 590.9000244140625 L 1111.14208984375 590.9000244140625 L 1111.14208984375 592.3599853515625 L 1109.152099609375 592.3599853515625 L 1109.152099609375 595.780029296875 C 1109.152099609375 596.0533447265625 1109.228759765625 596.2566528320312 1109.382080078125 596.3900146484375 C 1109.535400390625 596.5166625976562 1109.7420654296875 596.5800170898438 1110.0020751953125 596.5800170898438 ZM 1115.586181640625 592.1500244140625 C 1115.1795654296875 592.1500244140625 1114.859619140625 592.280029296875 1114.626220703125 592.5399780273438 C 1114.3929443359375 592.7999877929688 1114.259521484375 593.1699829101562 1114.2261962890625 593.6500244140625 L 1116.9462890625 593.6500244140625 C 1116.932861328125 593.1699829101562 1116.8062744140625 592.7999877929688 1116.5662841796875 592.5399780273438 C 1116.326171875 592.280029296875 1115.99951171875 592.1500244140625 1115.586181640625 592.1500244140625 M 1115.8662109375 598.1300048828125 C 1114.7196044921875 598.1300048828125 1113.826171875 597.8133544921875 1113.186279296875 597.1799926757812 C 1112.53955078125 596.5533447265625 1112.2161865234375 595.6599731445312 1112.2161865234375 594.5 C 1112.2161865234375 593.3133544921875 1112.5162353515625 592.393310546875 1113.1162109375 591.739990234375 C 1113.7095947265625 591.0933227539062 1114.529541015625 590.77001953125 1115.576171875 590.77001953125 C 1116.5828857421875 590.77001953125 1117.3629150390625 591.056640625 1117.916259765625 591.6300048828125 C 1118.4761962890625 592.1966552734375 1118.7562255859375 592.9833374023438 1118.7562255859375 593.989990234375 L 1118.7562255859375 594.9299926757812 L 1114.186279296875 594.9299926757812 C 1114.2061767578125 595.4833374023438 1114.3662109375 595.913330078125 1114.666259765625 596.219970703125 C 1114.972900390625 596.5333251953125 1115.4029541015625 596.6900024414062 1115.9561767578125 596.6900024414062 C 1116.3829345703125 596.6900024414062 1116.7862548828125 596.643310546875 1117.166259765625 596.5499877929688 C 1117.5462646484375 596.4633178710938 1117.94287109375 596.3233032226562 1118.356201171875 596.1300048828125 L 1118.356201171875 597.6300048828125 C 1118.0162353515625 597.7966918945312 1117.65625 597.9199829101562 1117.2762451171875 598 C 1116.8895263671875 598.086669921875 1116.4195556640625 598.1300048828125 1115.8662109375 598.1300048828125 ZM 1126.162841796875 598 L 1125.6129150390625 595.52001953125 L 1124.8828125 592.3800048828125 L 1124.8328857421875 592.3800048828125 L 1123.5428466796875 598 L 1121.462890625 598 L 1119.44287109375 590.9000244140625 L 1121.3729248046875 590.9000244140625 L 1122.19287109375 594.0499877929688 C 1122.319580078125 594.6099853515625 1122.452880859375 595.3833618164062 1122.5928955078125 596.3699951171875 L 1122.6229248046875 596.3699951171875 C 1122.642822265625 596.0499877929688 1122.719482421875 595.5433349609375 1122.8529052734375 594.8499755859375 L 1122.952880859375 594.3099975585938 L 1123.8228759765625 590.9000244140625 L 1125.962890625 590.9000244140625 L 1126.7928466796875 594.3099975585938 C 1126.80615234375 594.4033203125 1126.8328857421875 594.5399780273438 1126.8729248046875 594.719970703125 C 1126.90625 594.9000244140625 1126.9395751953125 595.0933227539062 1126.972900390625 595.2999877929688 C 1127.0062255859375 595.5066528320312 1127.0362548828125 595.7066650390625 1127.0628662109375 595.9000244140625 C 1127.0894775390625 596.0999755859375 1127.106201171875 596.2566528320312 1127.1129150390625 596.3699951171875 L 1127.15283203125 596.3699951171875 C 1127.19287109375 596.0700073242188 1127.259521484375 595.6533203125 1127.3529052734375 595.1199951171875 C 1127.452880859375 594.586669921875 1127.5228271484375 594.22998046875 1127.5628662109375 594.0499877929688 L 1128.412841796875 590.9000244140625 L 1130.3128662109375 590.9000244140625 L 1128.2728271484375 598 L 1126.162841796875 598 ZM 1135.947998046875 598 L 1135.5780029296875 597.0399780273438 L 1135.5279541015625 597.0399780273438 C 1135.2012939453125 597.4466552734375 1134.8646240234375 597.72998046875 1134.5179443359375 597.8900146484375 C 1134.1712646484375 598.0499877929688 1133.7213134765625 598.1300048828125 1133.16796875 598.1300048828125 C 1132.488037109375 598.1300048828125 1131.9512939453125 597.933349609375 1131.5579833984375 597.5399780273438 C 1131.1712646484375 597.1533203125 1130.97802734375 596.5999755859375 1130.97802734375 595.8800048828125 C 1130.97802734375 595.1266479492188 1131.2413330078125 594.5700073242188 1131.7679443359375 594.2100219726562 C 1132.294677734375 593.856689453125 1133.0880126953125 593.6599731445312 1134.14794921875 593.6199951171875 L 1135.3779296875 593.5800170898438 L 1135.3779296875 593.27001953125 C 1135.3779296875 592.5499877929688 1135.0113525390625 592.1900024414062 1134.2779541015625 592.1900024414062 C 1133.7113037109375 592.1900024414062 1133.044677734375 592.3633422851562 1132.2779541015625 592.7100219726562 L 1131.637939453125 591.4000244140625 C 1132.4512939453125 590.9733276367188 1133.3546142578125 590.760009765625 1134.3480224609375 590.760009765625 C 1135.30126953125 590.760009765625 1136.0313720703125 590.9666748046875 1136.5379638671875 591.3800048828125 C 1137.044677734375 591.7933349609375 1137.2979736328125 592.42333984375 1137.2979736328125 593.27001953125 L 1137.2979736328125 598 L 1135.947998046875 598 M 1135.3779296875 594.7100219726562 L 1134.6279296875 594.739990234375 C 1134.0679931640625 594.7533569335938 1133.6513671875 594.8533325195312 1133.3779296875 595.0399780273438 C 1133.0980224609375 595.2266845703125 1132.9580078125 595.510009765625 1132.9580078125 595.8900146484375 C 1132.9580078125 596.4366455078125 1133.2713623046875 596.7100219726562 1133.89794921875 596.7100219726562 C 1134.351318359375 596.7100219726562 1134.7113037109375 596.5800170898438 1134.97802734375 596.3200073242188 C 1135.24462890625 596.066650390625 1135.3779296875 595.7266845703125 1135.3779296875 595.2999877929688 L 1135.3779296875 594.7100219726562 ZM 1138.2779541015625 590.9000244140625 L 1140.39794921875 590.9000244140625 L 1141.7379150390625 594.9000244140625 C 1141.851318359375 595.2466430664062 1141.927978515625 595.6566772460938 1141.9678955078125 596.1300048828125 L 1142.0079345703125 596.1300048828125 C 1142.0545654296875 595.6900024414062 1142.14794921875 595.280029296875 1142.2879638671875 594.9000244140625 L 1143.597900390625 590.9000244140625 L 1145.677978515625 590.9000244140625 L 1142.66796875 598.9099731445312 C 1142.3946533203125 599.6500244140625 1142.004638671875 600.2033081054688 1141.4979248046875 600.5700073242188 C 1140.984619140625 600.9366455078125 1140.387939453125 601.1199951171875 1139.7080078125 601.1199951171875 C 1139.3746337890625 601.1199951171875 1139.044677734375 601.086669921875 1138.7178955078125 601.02001953125 L 1138.7178955078125 599.47998046875 C 1138.9512939453125 599.5333251953125 1139.2080078125 599.5599975585938 1139.4879150390625 599.5599975585938 C 1139.8280029296875 599.5599975585938 1140.1246337890625 599.4566650390625 1140.3779296875 599.25 C 1140.637939453125 599.0366821289062 1140.8380126953125 598.719970703125 1140.9779052734375 598.2999877929688 L 1141.097900390625 597.9500122070312 L 1138.2779541015625 590.9000244140625 ZM 1151.645263671875 595.8900146484375 C 1151.645263671875 596.6166381835938 1151.3919677734375 597.17333984375 1150.88525390625 597.5599975585938 C 1150.378662109375 597.9400024414062 1149.6219482421875 598.1300048828125 1148.615234375 598.1300048828125 C 1148.0953369140625 598.1300048828125 1147.6552734375 598.0933227539062 1147.2952880859375 598.02001953125 C 1146.9285888671875 597.9533081054688 1146.588623046875 597.8499755859375 1146.2752685546875 597.7100219726562 L 1146.2752685546875 596.1099853515625 C 1146.63525390625 596.2833251953125 1147.03857421875 596.4266967773438 1147.4853515625 596.5399780273438 C 1147.9385986328125 596.6533203125 1148.3353271484375 596.7100219726562 1148.67529296875 596.7100219726562 C 1149.3819580078125 596.7100219726562 1149.7353515625 596.5066528320312 1149.7353515625 596.0999755859375 C 1149.7353515625 595.9466552734375 1149.6885986328125 595.8233032226562 1149.5953369140625 595.72998046875 C 1149.501953125 595.6366577148438 1149.338623046875 595.530029296875 1149.1053466796875 595.4099731445312 C 1148.878662109375 595.2899780273438 1148.5753173828125 595.1466674804688 1148.1953125 594.97998046875 C 1147.648681640625 594.7533569335938 1147.2486572265625 594.5433349609375 1146.9952392578125 594.3499755859375 C 1146.7353515625 594.1566772460938 1146.548583984375 593.933349609375 1146.435302734375 593.6799926757812 C 1146.3153076171875 593.4266967773438 1146.2552490234375 593.1166381835938 1146.2552490234375 592.75 C 1146.2552490234375 592.1166381835938 1146.501953125 591.6300048828125 1146.9952392578125 591.2899780273438 C 1147.48193359375 590.943359375 1148.17529296875 590.77001953125 1149.0753173828125 590.77001953125 C 1149.9285888671875 590.77001953125 1150.7586669921875 590.9566650390625 1151.5653076171875 591.3300170898438 L 1150.9853515625 592.72998046875 C 1150.625244140625 592.57666015625 1150.2919921875 592.4500122070312 1149.9853515625 592.3499755859375 C 1149.6785888671875 592.25 1149.3619384765625 592.2000122070312 1149.0352783203125 592.2000122070312 C 1148.4686279296875 592.2000122070312 1148.185302734375 592.356689453125 1148.185302734375 592.6699829101562 C 1148.185302734375 592.8433227539062 1148.2752685546875 592.9933471679688 1148.455322265625 593.1199951171875 C 1148.6419677734375 593.2466430664062 1149.0452880859375 593.433349609375 1149.665283203125 593.6799926757812 C 1150.2186279296875 593.9066772460938 1150.625244140625 594.1166381835938 1150.88525390625 594.3099975585938 C 1151.145263671875 594.5033569335938 1151.3353271484375 594.7266845703125 1151.455322265625 594.97998046875 C 1151.5819091796875 595.239990234375 1151.645263671875 595.5433349609375 1151.645263671875 595.8900146484375 ZM 1155.03857421875 596.6400146484375 C 1154.8184814453125 597.4933471679688 1154.448486328125 598.5066528320312 1153.9285888671875 599.6799926757812 L 1152.528564453125 599.6799926757812 C 1152.8018798828125 598.5533447265625 1153.0152587890625 597.489990234375 1153.1685791015625 596.489990234375 L 1154.948486328125 596.489990234375 L 1155.03857421875 596.6400146484375 ZM 1163.225341796875 592.1500244140625 C 1162.8187255859375 592.1500244140625 1162.498779296875 592.280029296875 1162.265380859375 592.5399780273438 C 1162.0321044921875 592.7999877929688 1161.898681640625 593.1699829101562 1161.8653564453125 593.6500244140625 L 1164.58544921875 593.6500244140625 C 1164.572021484375 593.1699829101562 1164.4454345703125 592.7999877929688 1164.2054443359375 592.5399780273438 C 1163.96533203125 592.280029296875 1163.638671875 592.1500244140625 1163.225341796875 592.1500244140625 M 1163.50537109375 598.1300048828125 C 1162.3587646484375 598.1300048828125 1161.46533203125 597.8133544921875 1160.825439453125 597.1799926757812 C 1160.1787109375 596.5533447265625 1159.8553466796875 595.6599731445312 1159.8553466796875 594.5 C 1159.8553466796875 593.3133544921875 1160.1553955078125 592.393310546875 1160.75537109375 591.739990234375 C 1161.3487548828125 591.0933227539062 1162.168701171875 590.77001953125 1163.21533203125 590.77001953125 C 1164.2220458984375 590.77001953125 1165.0020751953125 591.056640625 1165.555419921875 591.6300048828125 C 1166.1153564453125 592.1966552734375 1166.3953857421875 592.9833374023438 1166.3953857421875 593.989990234375 L 1166.3953857421875 594.9299926757812 L 1161.825439453125 594.9299926757812 C 1161.8453369140625 595.4833374023438 1162.00537109375 595.913330078125 1162.305419921875 596.219970703125 C 1162.612060546875 596.5333251953125 1163.0421142578125 596.6900024414062 1163.5953369140625 596.6900024414062 C 1164.0220947265625 596.6900024414062 1164.4254150390625 596.643310546875 1164.805419921875 596.5499877929688 C 1165.1854248046875 596.4633178710938 1165.58203125 596.3233032226562 1165.995361328125 596.1300048828125 L 1165.995361328125 597.6300048828125 C 1165.6553955078125 597.7966918945312 1165.29541015625 597.9199829101562 1164.9154052734375 598 C 1164.5286865234375 598.086669921875 1164.0587158203125 598.1300048828125 1163.50537109375 598.1300048828125 ZM 1170.9620361328125 596.5800170898438 C 1171.29541015625 596.5800170898438 1171.69873046875 596.5066528320312 1172.1719970703125 596.3599853515625 L 1172.1719970703125 597.7999877929688 C 1171.6920166015625 598.02001953125 1171.10205078125 598.1300048828125 1170.4019775390625 598.1300048828125 C 1169.628662109375 598.1300048828125 1169.0653076171875 597.933349609375 1168.7120361328125 597.5399780273438 C 1168.358642578125 597.1466674804688 1168.1820068359375 596.5599975585938 1168.1820068359375 595.780029296875 L 1168.1820068359375 592.3599853515625 L 1167.2520751953125 592.3599853515625 L 1167.2520751953125 591.5399780273438 L 1168.31201171875 590.8900146484375 L 1168.8720703125 589.3900146484375 L 1170.112060546875 589.3900146484375 L 1170.112060546875 590.9000244140625 L 1172.10205078125 590.9000244140625 L 1172.10205078125 592.3599853515625 L 1170.112060546875 592.3599853515625 L 1170.112060546875 595.780029296875 C 1170.112060546875 596.0533447265625 1170.188720703125 596.2566528320312 1170.342041015625 596.3900146484375 C 1170.495361328125 596.5166625976562 1170.7020263671875 596.5800170898438 1170.9620361328125 596.5800170898438 ZM 1176.496337890625 598.1300048828125 C 1174.282958984375 598.1300048828125 1173.17626953125 596.9166870117188 1173.17626953125 594.489990234375 C 1173.17626953125 593.2833251953125 1173.4796142578125 592.3633422851562 1174.0863037109375 591.72998046875 C 1174.686279296875 591.0900268554688 1175.5462646484375 590.77001953125 1176.666259765625 590.77001953125 C 1177.486328125 590.77001953125 1178.2230224609375 590.9299926757812 1178.8763427734375 591.25 L 1178.3062744140625 592.75 C 1177.9996337890625 592.6300048828125 1177.71630859375 592.530029296875 1177.456298828125 592.4500122070312 C 1177.189697265625 592.3699951171875 1176.92626953125 592.3300170898438 1176.666259765625 592.3300170898438 C 1175.65966796875 592.3300170898438 1175.1563720703125 593.0466918945312 1175.1563720703125 594.47998046875 C 1175.1563720703125 595.8666381835938 1175.65966796875 596.5599975585938 1176.666259765625 596.5599975585938 C 1177.0396728515625 596.5599975585938 1177.3829345703125 596.510009765625 1177.6962890625 596.4099731445312 C 1178.016357421875 596.3099975585938 1178.3363037109375 596.1533203125 1178.6563720703125 595.9400024414062 L 1178.6563720703125 597.5999755859375 C 1178.343017578125 597.7999877929688 1178.0263671875 597.9366455078125 1177.706298828125 598.010009765625 C 1177.3863525390625 598.0900268554688 1176.9830322265625 598.1300048828125 1176.496337890625 598.1300048828125 Z" transform="matrix(1, 0, 0, 1, -45.61643981933594, -53.01368713378906)" style="fill: rgb(51, 51, 51); white-space: pre; color: rgb(51, 51, 51);"/><path d="M 1110 156 L 1110 225" class="pipe" style="stroke: rgb(209, 213, 219); stroke-width: 1.4; stroke-linecap: round; stroke-linejoin: round; marker-end: url('#marker-1');" transform="matrix(0.021028989925980568, 1.093548059463501, -1.093548059463501, 0.021028989925980568, 1025.5278727751465, -663.3235533407915)"/></svg>