<svg width="1200" height="720" viewBox="0 0 1200 720" fill="none" xmlns="http://www.w3.org/2000/svg">
  <defs>
    <linearGradient id="g1" x1="0" y1="0" x2="1" y2="1">
      <stop offset="0%" stop-color="#8C52FF"/>
      <stop offset="100%" stop-color="#A273FF"/>
    </linearGradient>
    <filter id="s" x="-20%" y="-20%" width="140%" height="140%">
      <feDropShadow dx="0" dy="20" stdDeviation="30" flood-opacity="0.25"/>
    </filter>
  </defs>
  <rect width="1200" height="720" rx="24" fill="url(#g1)"/>
  <rect x="60" y="60" width="1080" height="600" rx="16" fill="white" filter="url(#s)"/>
  <rect x="60" y="60" width="1080" height="56" rx="16" fill="#F4F5F7"/>
  <circle cx="92" cy="88" r="8" fill="#D1D5DB"/>
  <circle cx="116" cy="88" r="8" fill="#D1D5DB"/>
  <circle cx="140" cy="88" r="8" fill="#D1D5DB"/>
  <rect x="100" y="148" width="260" height="28" rx="6" fill="#E5E7EB"/>
  <rect x="100" y="188" width="180" height="14" rx="6" fill="#E5E7EB"/>

  <!-- grid -->
  <g transform="translate(100,240)">
    <rect x="0" y="0" width="280" height="280" rx="14" fill="#FAFAFA" stroke="#EEF0F4"/>
    <rect x="24" y="24" width="232" height="160" rx="10" fill="#EDE9FE"/>
    <rect x="24" y="196" width="160" height="16" rx="8" fill="#E5E7EB"/>
    <rect x="24" y="222" width="120" height="12" rx="6" fill="#F1F5F9"/>
    <rect x="24" y="246" width="80" height="16" rx="8" fill="#8C52FF" opacity="0.4"/>
  </g>
  <g transform="translate(408,240)">
    <rect x="0" y="0" width="280" height="280" rx="14" fill="#FAFAFA" stroke="#EEF0F4"/>
    <rect x="24" y="24" width="232" height="160" rx="10" fill="#EDE9FE"/>
    <rect x="24" y="196" width="180" height="16" rx="8" fill="#E5E7EB"/>
    <rect x="24" y="222" width="120" height="12" rx="6" fill="#F1F5F9"/>
    <rect x="24" y="246" width="80" height="16" rx="8" fill="#8C52FF" opacity="0.4"/>
  </g>
  <g transform="translate(716,240)">
    <rect x="0" y="0" width="280" height="280" rx="14" fill="#FAFAFA" stroke="#EEF0F4"/>
    <rect x="24" y="24" width="232" height="160" rx="10" fill="#EDE9FE"/>
    <rect x="24" y="196" width="140" height="16" rx="8" fill="#E5E7EB"/>
    <rect x="24" y="222" width="120" height="12" rx="6" fill="#F1F5F9"/>
    <rect x="24" y="246" width="80" height="16" rx="8" fill="#8C52FF" opacity="0.4"/>
  </g>

  <text x="600" y="690" text-anchor="middle" font-family="Inter, system-ui, -apple-system, Segoe UI, Roboto" font-size="14" fill="#ffffff" opacity="0.9">
    Storefront Screenshot Placeholder — replace with your real screenshot
  </text>
</svg>


