<svg width="1200" height="900" viewBox="0 0 1200 900" fill="none" xmlns="http://www.w3.org/2000/svg">
  <defs>
    <linearGradient id="bg" x1="0" y1="0" x2="1" y2="1">
      <stop offset="0%" stop-color="#8C52FF"/>
      <stop offset="100%" stop-color="#A273FF"/>
    </linearGradient>
    <filter id="ds" x="-20%" y="-20%" width="140%" height="140%">
      <feDropShadow dx="0" dy="30" stdDeviation="40" flood-opacity="0.25"/>
    </filter>
    <filter id="soft" x="-10%" y="-10%" width="120%" height="120%">
      <feGaussianBlur stdDeviation="10"/>
    </filter>
  </defs>
  <rect width="1200" height="900" rx="32" fill="url(#bg)" opacity="0.1"/>

  <!-- subtle blobs -->
  <circle cx="1020" cy="140" r="120" fill="#8C52FF" opacity="0.18" filter="url(#soft)"/>
  <circle cx="180" cy="760" r="140" fill="#A273FF" opacity="0.14" filter="url(#soft)"/>

  <!-- API card -->
  <g transform="translate(120, 320)" filter="url(#ds)">
    <rect x="0" y="0" width="360" height="260" rx="18" fill="#FFFFFF"/>
    <rect x="0" y="0" width="360" height="44" rx="18" fill="#F4F5F7"/>
    <circle cx="24" cy="22" r="6" fill="#D1D5DB"/>
    <circle cx="42" cy="22" r="6" fill="#D1D5DB"/>
    <circle cx="60" cy="22" r="6" fill="#D1D5DB"/>
    <g transform="translate(28, 76)" stroke="#8C52FF" stroke-width="2" stroke-linecap="round" stroke-linejoin="round">
      <rect x="0" y="0" width="120" height="24" rx="6" fill="#F6F5FF" stroke="#EDE9FE"/>
      <rect x="0" y="44" width="220" height="14" rx="7" fill="#F9FAFB" stroke="#EEF0F4"/>
      <rect x="0" y="68" width="180" height="14" rx="7" fill="#F9FAFB" stroke="#EEF0F4"/>
      <rect x="0" y="92" width="200" height="14" rx="7" fill="#F9FAFB" stroke="#EEF0F4"/>
      <g transform="translate(260, 16)" stroke="currentColor">
        <path d="M7 6l-6 6 6 6"></path>
        <circle cx="20" cy="12" r="3"></circle>
        <path d="M33 6l6 6-6 6"></path>
      </g>
    </g>
    <text x="28" y="30" font-family="Inter, system-ui, -apple-system, Segoe UI, Roboto" font-size="12" fill="#6B7280">API</text>
  </g>

  <!-- Storefront window -->
  <g transform="translate(280, 140)" filter="url(#ds)">
    <rect x="0" y="0" width="520" height="340" rx="18" fill="#FFFFFF"/>
    <rect x="0" y="0" width="520" height="44" rx="18" fill="#F4F5F7"/>
    <circle cx="24" cy="22" r="6" fill="#D1D5DB"/>
    <circle cx="42" cy="22" r="6" fill="#D1D5DB"/>
    <circle cx="60" cy="22" r="6" fill="#D1D5DB"/>
    <g transform="translate(24, 70)">
      <rect x="0" y="0" width="180" height="16" rx="8" fill="#E5E7EB"/>
      <rect x="0" y="28" width="120" height="12" rx="6" fill="#F1F5F9"/>
      <g transform="translate(0, 64)">
        <rect x="0" y="0" width="148" height="148" rx="12" fill="#EDE9FE"/>
        <rect x="164" y="0" width="148" height="148" rx="12" fill="#EDE9FE"/>
        <rect x="328" y="0" width="148" height="148" rx="12" fill="#EDE9FE"/>
        <rect x="0" y="160" width="120" height="12" rx="6" fill="#E5E7EB"/>
        <rect x="0" y="180" width="80" height="16" rx="8" fill="#8C52FF" opacity="0.4"/>
      </g>
    </g>
    <g transform="translate(440, 12)">
      <path d="M12 3l2 5 5 2-5 2-2 5-2-5-5-2 5-2 2-5z" fill="#8C52FF" opacity="0.8"/>
    </g>
    <text x="24" y="30" font-family="Inter, system-ui, -apple-system, Segoe UI, Roboto" font-size="12" fill="#6B7280">Storefront</text>
  </g>

  <!-- Admin window -->
  <g transform="translate(660, 360)" filter="url(#ds)">
    <rect x="0" y="0" width="420" height="300" rx="18" fill="#FFFFFF"/>
    <rect x="0" y="0" width="420" height="44" rx="18" fill="#F4F5F7"/>
    <circle cx="24" cy="22" r="6" fill="#D1D5DB"/>
    <circle cx="42" cy="22" r="6" fill="#D1D5DB"/>
    <circle cx="60" cy="22" r="6" fill="#D1D5DB"/>
    <g transform="translate(24, 70)">
      <rect x="0" y="0" width="160" height="16" rx="8" fill="#E5E7EB"/>
      <rect x="0" y="28" width="120" height="12" rx="6" fill="#F1F5F9"/>
      <g transform="translate(0, 58)" stroke="#EEF0F4">
        <rect x="0" y="0" width="372" height="44" rx="8" fill="#FAFAFA"/>
        <rect x="0" y="56" width="372" height="44" rx="8" fill="#FFFFFF"/>
        <rect x="0" y="112" width="372" height="44" rx="8" fill="#FAFAFA"/>
      </g>
      <g transform="translate(292, -8)" stroke="#8C52FF" stroke-width="2" stroke-linecap="round">
        <circle cx="16" cy="36" r="10" fill="#EDE9FE" stroke="#EDE9FE"/>
        <path d="M16 28v16"></path>
        <path d="M8 36h16"></path>
      </g>
    </g>
    <g transform="translate(360, 12)">
      <path d="M12 4a8 8 0 0 1 8 8v0a8 8 0 0 1-8 8 8 8 0 0 1-8-8v0a8 8 0 0 1 8-8z" stroke="#8C52FF" stroke-width="2" fill="none"/>
      <path d="M9 12h6M12 9v6" stroke="#8C52FF" stroke-width="2" stroke-linecap="round"/>
    </g>
    <text x="24" y="30" font-family="Inter, system-ui, -apple-system, Segoe UI, Roboto" font-size="12" fill="#6B7280">Admin</text>
  </g>

  <text x="600" y="870" text-anchor="middle" font-family="Inter, system-ui, -apple-system, Segoe UI, Roboto" font-size="14" fill="#6B7280">
    Storefront, Admin, and API — included out of the box
  </text>
</svg>


